<mxfile host="app.diagrams.net" agent="Mozilla/5.0 (Windows NT 10.0; Win64; x64) AppleWebKit/537.36 (KHTML, like Gecko) Chrome/131.0.0.0 Safari/537.36" version="26.0.11" pages="6">
  <diagram name="Página-1" id="ADHDNaXt84kSxLW3gGRc">
    <mxGraphModel dx="3000" dy="1591" grid="1" gridSize="10" guides="1" tooltips="1" connect="1" arrows="1" fold="1" page="1" pageScale="1" pageWidth="827" pageHeight="1169" math="0" shadow="0">
      <root>
        <mxCell id="0" />
        <mxCell id="1" parent="0" />
        <mxCell id="9HzkwYVFT3HCPuWsov---1" value="&lt;font style=&quot;vertical-align: inherit;&quot;&gt;&lt;font style=&quot;vertical-align: inherit;&quot;&gt;INICIO&lt;/font&gt;&lt;/font&gt;" style="ellipse;whiteSpace=wrap;html=1;" vertex="1" parent="1">
          <mxGeometry x="354" y="80" width="120" height="80" as="geometry" />
        </mxCell>
        <mxCell id="9HzkwYVFT3HCPuWsov---2" value="" style="edgeStyle=none;orthogonalLoop=1;jettySize=auto;html=1;rounded=0;exitX=0.5;exitY=1;exitDx=0;exitDy=0;" edge="1" parent="1" source="9HzkwYVFT3HCPuWsov---1">
          <mxGeometry width="100" relative="1" as="geometry">
            <mxPoint x="370" y="180" as="sourcePoint" />
            <mxPoint x="414" y="200" as="targetPoint" />
            <Array as="points" />
          </mxGeometry>
        </mxCell>
        <mxCell id="9HzkwYVFT3HCPuWsov---3" value="&lt;font style=&quot;vertical-align: inherit;&quot;&gt;&lt;font style=&quot;vertical-align: inherit;&quot;&gt;&quot;INDIQUE LA BASE DEL TRIANGULO&quot;&lt;/font&gt;&lt;/font&gt;" style="shape=document;whiteSpace=wrap;html=1;boundedLbl=1;" vertex="1" parent="1">
          <mxGeometry x="320" y="200" width="200" height="90" as="geometry" />
        </mxCell>
        <mxCell id="9HzkwYVFT3HCPuWsov---9" value="" style="edgeStyle=none;orthogonalLoop=1;jettySize=auto;html=1;rounded=0;" edge="1" parent="1">
          <mxGeometry width="100" relative="1" as="geometry">
            <mxPoint x="413" y="280" as="sourcePoint" />
            <mxPoint x="413" y="320" as="targetPoint" />
            <Array as="points" />
          </mxGeometry>
        </mxCell>
        <mxCell id="9HzkwYVFT3HCPuWsov---10" value="&lt;font style=&quot;vertical-align: inherit;&quot;&gt;&lt;font style=&quot;vertical-align: inherit;&quot;&gt;3&lt;/font&gt;&lt;/font&gt;" style="shape=parallelogram;perimeter=parallelogramPerimeter;whiteSpace=wrap;html=1;fixedSize=1;" vertex="1" parent="1">
          <mxGeometry x="329" y="320" width="170" height="60" as="geometry" />
        </mxCell>
        <mxCell id="9HzkwYVFT3HCPuWsov---12" value="" style="edgeStyle=none;orthogonalLoop=1;jettySize=auto;html=1;rounded=0;exitX=0.5;exitY=1;exitDx=0;exitDy=0;" edge="1" parent="1">
          <mxGeometry width="100" relative="1" as="geometry">
            <mxPoint x="413" y="380" as="sourcePoint" />
            <mxPoint x="413" y="420" as="targetPoint" />
            <Array as="points">
              <mxPoint x="413" y="390" />
            </Array>
          </mxGeometry>
        </mxCell>
        <mxCell id="9HzkwYVFT3HCPuWsov---13" value="&lt;font style=&quot;vertical-align: inherit;&quot;&gt;&lt;font style=&quot;vertical-align: inherit;&quot;&gt;&lt;font style=&quot;vertical-align: inherit;&quot;&gt;&lt;font style=&quot;vertical-align: inherit;&quot;&gt;&lt;font style=&quot;vertical-align: inherit;&quot;&gt;&lt;font style=&quot;vertical-align: inherit;&quot;&gt;&quot;INDIQUE ALTURA DEL TRIÁNGULO&quot;&lt;/font&gt;&lt;/font&gt;&lt;/font&gt;&lt;/font&gt;&lt;/font&gt;&lt;/font&gt;" style="shape=document;whiteSpace=wrap;html=1;boundedLbl=1;" vertex="1" parent="1">
          <mxGeometry x="314" y="420" width="200" height="90" as="geometry" />
        </mxCell>
        <mxCell id="9HzkwYVFT3HCPuWsov---14" value="" style="edgeStyle=none;orthogonalLoop=1;jettySize=auto;html=1;rounded=0;exitX=0.5;exitY=1;exitDx=0;exitDy=0;" edge="1" parent="1">
          <mxGeometry width="100" relative="1" as="geometry">
            <mxPoint x="413" y="500" as="sourcePoint" />
            <mxPoint x="413" y="540" as="targetPoint" />
            <Array as="points">
              <mxPoint x="413" y="510" />
            </Array>
          </mxGeometry>
        </mxCell>
        <mxCell id="9HzkwYVFT3HCPuWsov---15" value="&lt;font style=&quot;vertical-align: inherit;&quot;&gt;&lt;font style=&quot;vertical-align: inherit;&quot;&gt;5&lt;/font&gt;&lt;/font&gt;" style="shape=parallelogram;perimeter=parallelogramPerimeter;whiteSpace=wrap;html=1;fixedSize=1;" vertex="1" parent="1">
          <mxGeometry x="329" y="540" width="170" height="60" as="geometry" />
        </mxCell>
        <mxCell id="9HzkwYVFT3HCPuWsov---16" value="" style="edgeStyle=none;orthogonalLoop=1;jettySize=auto;html=1;rounded=0;exitX=0.5;exitY=1;exitDx=0;exitDy=0;" edge="1" parent="1">
          <mxGeometry width="100" relative="1" as="geometry">
            <mxPoint x="413" y="600" as="sourcePoint" />
            <mxPoint x="413" y="640" as="targetPoint" />
            <Array as="points">
              <mxPoint x="413" y="610" />
            </Array>
          </mxGeometry>
        </mxCell>
        <mxCell id="9HzkwYVFT3HCPuWsov---17" value="&lt;font style=&quot;vertical-align: inherit;&quot;&gt;&lt;font style=&quot;vertical-align: inherit;&quot;&gt;&lt;font style=&quot;vertical-align: inherit;&quot;&gt;&lt;font style=&quot;vertical-align: inherit;&quot;&gt;&amp;nbsp; &amp;nbsp; &amp;nbsp; &amp;nbsp; &amp;nbsp; &amp;nbsp; &amp;nbsp; &amp;nbsp;&amp;nbsp;&lt;/font&gt;&lt;/font&gt;&lt;/font&gt;&lt;/font&gt;&lt;div&gt;&lt;font style=&quot;vertical-align: inherit;&quot;&gt;&lt;font style=&quot;vertical-align: inherit;&quot;&gt;&lt;font style=&quot;vertical-align: inherit;&quot;&gt;&lt;font style=&quot;vertical-align: inherit;&quot;&gt;&amp;nbsp; &amp;nbsp; &amp;nbsp; &amp;nbsp; &amp;nbsp; &amp;nbsp; &amp;nbsp; &amp;nbsp; ÁREA&amp;nbsp; &amp;nbsp; &amp;nbsp; &amp;nbsp; &amp;nbsp; &amp;nbsp; &amp;nbsp; &amp;nbsp; &amp;nbsp; &amp;nbsp; &amp;nbsp; &amp;nbsp; &amp;nbsp; &amp;nbsp; &amp;nbsp; 1/2*3*5&amp;nbsp; &amp;nbsp; &amp;nbsp; &amp;nbsp; &amp;nbsp; &amp;nbsp; &amp;nbsp; &amp;nbsp; &amp;nbsp; &amp;nbsp; &amp;nbsp; &amp;nbsp;&lt;/font&gt;&lt;/font&gt;&lt;/font&gt;&lt;/font&gt;&lt;/div&gt;" style="rounded=0;whiteSpace=wrap;html=1;" vertex="1" parent="1">
          <mxGeometry x="274" y="640" width="280" height="60" as="geometry" />
        </mxCell>
        <mxCell id="9HzkwYVFT3HCPuWsov---20" value="&lt;font style=&quot;vertical-align: inherit;&quot;&gt;&lt;font style=&quot;vertical-align: inherit;&quot;&gt;&quot;SU AREA ES&quot; AREA&amp;nbsp;&lt;/font&gt;&lt;/font&gt;" style="shape=document;whiteSpace=wrap;html=1;boundedLbl=1;" vertex="1" parent="1">
          <mxGeometry x="320" y="740" width="200" height="80" as="geometry" />
        </mxCell>
        <mxCell id="9HzkwYVFT3HCPuWsov---21" value="" style="edgeStyle=none;orthogonalLoop=1;jettySize=auto;html=1;rounded=0;exitX=0.5;exitY=1;exitDx=0;exitDy=0;" edge="1" parent="1">
          <mxGeometry width="100" relative="1" as="geometry">
            <mxPoint x="413" y="700" as="sourcePoint" />
            <mxPoint x="413" y="740" as="targetPoint" />
            <Array as="points">
              <mxPoint x="413" y="710" />
            </Array>
          </mxGeometry>
        </mxCell>
        <mxCell id="9HzkwYVFT3HCPuWsov---23" value="" style="edgeStyle=none;orthogonalLoop=1;jettySize=auto;html=1;rounded=0;exitX=0.5;exitY=1;exitDx=0;exitDy=0;" edge="1" parent="1">
          <mxGeometry width="100" relative="1" as="geometry">
            <mxPoint x="414" y="810" as="sourcePoint" />
            <mxPoint x="414" y="850" as="targetPoint" />
            <Array as="points">
              <mxPoint x="414" y="820" />
            </Array>
          </mxGeometry>
        </mxCell>
        <mxCell id="9HzkwYVFT3HCPuWsov---24" value="&lt;font style=&quot;vertical-align: inherit;&quot;&gt;&lt;font style=&quot;vertical-align: inherit;&quot;&gt;FIN&lt;/font&gt;&lt;/font&gt;" style="ellipse;whiteSpace=wrap;html=1;" vertex="1" parent="1">
          <mxGeometry x="354" y="850" width="120" height="80" as="geometry" />
        </mxCell>
      </root>
    </mxGraphModel>
  </diagram>
  <diagram id="02pCerUH38ZgI9JnX_mi" name="Página-2">
    <mxGraphModel dx="1050" dy="557" grid="1" gridSize="10" guides="1" tooltips="1" connect="1" arrows="1" fold="1" page="1" pageScale="1" pageWidth="827" pageHeight="1169" math="0" shadow="0">
      <root>
        <mxCell id="0" />
        <mxCell id="1" parent="0" />
        <mxCell id="NUzkeQx5HCCTMFpQ5mMt-1" value="INICIO" style="ellipse;whiteSpace=wrap;html=1;" vertex="1" parent="1">
          <mxGeometry x="354" y="10" width="120" height="80" as="geometry" />
        </mxCell>
        <mxCell id="tH6p9Fqit0XPaFh6XbKy-1" value="" style="edgeStyle=none;orthogonalLoop=1;jettySize=auto;html=1;rounded=0;exitX=0.5;exitY=1;exitDx=0;exitDy=0;" edge="1" parent="1">
          <mxGeometry width="100" relative="1" as="geometry">
            <mxPoint x="413" y="90" as="sourcePoint" />
            <mxPoint x="413" y="130" as="targetPoint" />
            <Array as="points" />
          </mxGeometry>
        </mxCell>
        <mxCell id="wUNIrlUCeMvC0hxFxhES-1" value="&quot;INGRESE UN VALOR EN METROS&quot;" style="shape=document;whiteSpace=wrap;html=1;boundedLbl=1;" vertex="1" parent="1">
          <mxGeometry x="314" y="130" width="200" height="90" as="geometry" />
        </mxCell>
        <mxCell id="wUNIrlUCeMvC0hxFxhES-2" value="" style="edgeStyle=none;orthogonalLoop=1;jettySize=auto;html=1;rounded=0;exitX=0.5;exitY=1;exitDx=0;exitDy=0;" edge="1" parent="1">
          <mxGeometry width="100" relative="1" as="geometry">
            <mxPoint x="414" y="210" as="sourcePoint" />
            <mxPoint x="414" y="250" as="targetPoint" />
            <Array as="points" />
          </mxGeometry>
        </mxCell>
        <mxCell id="JO_UbBo-bJ2btmlA1DXE-1" value="50" style="shape=parallelogram;perimeter=parallelogramPerimeter;whiteSpace=wrap;html=1;fixedSize=1;" vertex="1" parent="1">
          <mxGeometry x="329" y="250" width="170" height="60" as="geometry" />
        </mxCell>
        <mxCell id="Y5MVNkyM1IO94xRc9Hi0-1" value="" style="edgeStyle=none;orthogonalLoop=1;jettySize=auto;html=1;rounded=0;exitX=0.5;exitY=1;exitDx=0;exitDy=0;" edge="1" parent="1">
          <mxGeometry width="100" relative="1" as="geometry">
            <mxPoint x="414" y="310" as="sourcePoint" />
            <mxPoint x="414" y="350" as="targetPoint" />
            <Array as="points" />
          </mxGeometry>
        </mxCell>
        <mxCell id="Y5MVNkyM1IO94xRc9Hi0-2" value="&lt;font style=&quot;vertical-align: inherit;&quot;&gt;&lt;font style=&quot;vertical-align: inherit;&quot;&gt;&lt;font style=&quot;vertical-align: inherit;&quot;&gt;&lt;font style=&quot;vertical-align: inherit;&quot;&gt;&amp;nbsp; &amp;nbsp; &amp;nbsp; &amp;nbsp; &amp;nbsp; &amp;nbsp; &amp;nbsp; &amp;nbsp;&amp;nbsp;&lt;/font&gt;&lt;/font&gt;&lt;/font&gt;&lt;/font&gt;&lt;div&gt;&lt;font style=&quot;vertical-align: inherit;&quot;&gt;&lt;font style=&quot;vertical-align: inherit;&quot;&gt;&lt;font style=&quot;vertical-align: inherit;&quot;&gt;&lt;font style=&quot;vertical-align: inherit;&quot;&gt;&amp;nbsp; &amp;nbsp; &amp;nbsp; &amp;nbsp; PULGADAS&amp;nbsp; &amp;nbsp; &amp;nbsp; &amp;nbsp; &amp;nbsp; &amp;nbsp; &amp;nbsp; &amp;nbsp; &amp;nbsp; &amp;nbsp; &amp;nbsp; &amp;nbsp; &amp;nbsp; &amp;nbsp; &amp;nbsp; 50*100/2.54&amp;nbsp; &amp;nbsp; &amp;nbsp; &amp;nbsp; &amp;nbsp; &amp;nbsp; &amp;nbsp; &amp;nbsp; &amp;nbsp; &amp;nbsp; &amp;nbsp; &amp;nbsp;&lt;/font&gt;&lt;/font&gt;&lt;/font&gt;&lt;/font&gt;&lt;/div&gt;" style="rounded=0;whiteSpace=wrap;html=1;" vertex="1" parent="1">
          <mxGeometry x="274" y="350" width="280" height="60" as="geometry" />
        </mxCell>
        <mxCell id="Y5MVNkyM1IO94xRc9Hi0-3" value="" style="edgeStyle=none;orthogonalLoop=1;jettySize=auto;html=1;rounded=0;exitX=0.5;exitY=1;exitDx=0;exitDy=0;" edge="1" parent="1">
          <mxGeometry width="100" relative="1" as="geometry">
            <mxPoint x="414" y="410" as="sourcePoint" />
            <mxPoint x="414" y="450" as="targetPoint" />
            <Array as="points" />
          </mxGeometry>
        </mxCell>
        <mxCell id="o6mCuA0KSgaETHTSl6Ma-1" value="&quot;EL EQUIVALENTE EN PULGADAS ES&quot; PULGADAS" style="shape=document;whiteSpace=wrap;html=1;boundedLbl=1;" vertex="1" parent="1">
          <mxGeometry x="314" y="450" width="200" height="80" as="geometry" />
        </mxCell>
        <mxCell id="o6mCuA0KSgaETHTSl6Ma-2" value="" style="edgeStyle=none;orthogonalLoop=1;jettySize=auto;html=1;rounded=0;exitX=0.5;exitY=1;exitDx=0;exitDy=0;" edge="1" parent="1">
          <mxGeometry width="100" relative="1" as="geometry">
            <mxPoint x="413" y="520" as="sourcePoint" />
            <mxPoint x="413" y="560" as="targetPoint" />
            <Array as="points" />
          </mxGeometry>
        </mxCell>
        <mxCell id="o6mCuA0KSgaETHTSl6Ma-3" value="FIN" style="ellipse;whiteSpace=wrap;html=1;" vertex="1" parent="1">
          <mxGeometry x="354" y="560" width="120" height="80" as="geometry" />
        </mxCell>
      </root>
    </mxGraphModel>
  </diagram>
  <diagram id="otxdn4e6ddad_a4g8v7x" name="Página-3">
    <mxGraphModel dx="1050" dy="557" grid="1" gridSize="10" guides="1" tooltips="1" connect="1" arrows="1" fold="1" page="1" pageScale="1" pageWidth="827" pageHeight="1169" math="0" shadow="0">
      <root>
        <mxCell id="0" />
        <mxCell id="1" parent="0" />
        <mxCell id="VTQk3LUYwc6nrgO0CF_R-1" value="FIN" style="ellipse;whiteSpace=wrap;html=1;" vertex="1" parent="1">
          <mxGeometry x="354" y="1530" width="120" height="80" as="geometry" />
        </mxCell>
        <mxCell id="VTQk3LUYwc6nrgO0CF_R-4" style="edgeStyle=orthogonalEdgeStyle;rounded=0;orthogonalLoop=1;jettySize=auto;html=1;" edge="1" parent="1" source="VTQk3LUYwc6nrgO0CF_R-3">
          <mxGeometry relative="1" as="geometry">
            <mxPoint x="414" y="560" as="targetPoint" />
          </mxGeometry>
        </mxCell>
        <mxCell id="VTQk3LUYwc6nrgO0CF_R-3" value="INICIO" style="ellipse;whiteSpace=wrap;html=1;" vertex="1" parent="1">
          <mxGeometry x="354" y="440" width="120" height="80" as="geometry" />
        </mxCell>
        <mxCell id="VTQk3LUYwc6nrgO0CF_R-5" value="ax**2+bx+c=0" style="rounded=0;whiteSpace=wrap;html=1;" vertex="1" parent="1">
          <mxGeometry x="354" y="560" width="120" height="60" as="geometry" />
        </mxCell>
        <mxCell id="05T9aVeLUFGOb_lzML_X-1" style="edgeStyle=orthogonalEdgeStyle;rounded=0;orthogonalLoop=1;jettySize=auto;html=1;" edge="1" parent="1">
          <mxGeometry relative="1" as="geometry">
            <mxPoint x="414" y="660" as="targetPoint" />
            <mxPoint x="414" y="620" as="sourcePoint" />
          </mxGeometry>
        </mxCell>
        <mxCell id="05T9aVeLUFGOb_lzML_X-2" value="&quot;INGRESE UN VALOR PARA a&quot;" style="shape=document;whiteSpace=wrap;html=1;boundedLbl=1;" vertex="1" parent="1">
          <mxGeometry x="320" y="660" width="200" height="90" as="geometry" />
        </mxCell>
        <mxCell id="HHsNqavpnKIZR5UzykMS-1" style="edgeStyle=orthogonalEdgeStyle;rounded=0;orthogonalLoop=1;jettySize=auto;html=1;" edge="1" parent="1">
          <mxGeometry relative="1" as="geometry">
            <mxPoint x="413" y="780" as="targetPoint" />
            <mxPoint x="413" y="740" as="sourcePoint" />
          </mxGeometry>
        </mxCell>
        <mxCell id="HHsNqavpnKIZR5UzykMS-2" value="5" style="shape=parallelogram;perimeter=parallelogramPerimeter;whiteSpace=wrap;html=1;fixedSize=1;" vertex="1" parent="1">
          <mxGeometry x="329" y="780" width="170" height="60" as="geometry" />
        </mxCell>
        <mxCell id="g0ntqG7BFeiyyCkO527r-1" value="&quot;INGRESE UN VALOR PARA b&quot;" style="shape=document;whiteSpace=wrap;html=1;boundedLbl=1;" vertex="1" parent="1">
          <mxGeometry x="314" y="880" width="200" height="90" as="geometry" />
        </mxCell>
        <mxCell id="g0ntqG7BFeiyyCkO527r-2" style="edgeStyle=orthogonalEdgeStyle;rounded=0;orthogonalLoop=1;jettySize=auto;html=1;" edge="1" parent="1">
          <mxGeometry relative="1" as="geometry">
            <mxPoint x="413" y="880" as="targetPoint" />
            <mxPoint x="413" y="840" as="sourcePoint" />
          </mxGeometry>
        </mxCell>
        <mxCell id="g0ntqG7BFeiyyCkO527r-3" style="edgeStyle=orthogonalEdgeStyle;rounded=0;orthogonalLoop=1;jettySize=auto;html=1;" edge="1" parent="1">
          <mxGeometry relative="1" as="geometry">
            <mxPoint x="413" y="1000" as="targetPoint" />
            <mxPoint x="413" y="960" as="sourcePoint" />
          </mxGeometry>
        </mxCell>
        <mxCell id="g0ntqG7BFeiyyCkO527r-4" value="3" style="shape=parallelogram;perimeter=parallelogramPerimeter;whiteSpace=wrap;html=1;fixedSize=1;" vertex="1" parent="1">
          <mxGeometry x="329" y="1000" width="170" height="60" as="geometry" />
        </mxCell>
        <mxCell id="g0ntqG7BFeiyyCkO527r-5" style="edgeStyle=orthogonalEdgeStyle;rounded=0;orthogonalLoop=1;jettySize=auto;html=1;" edge="1" parent="1">
          <mxGeometry relative="1" as="geometry">
            <mxPoint x="414" y="1100" as="targetPoint" />
            <mxPoint x="414" y="1060" as="sourcePoint" />
          </mxGeometry>
        </mxCell>
        <mxCell id="g0ntqG7BFeiyyCkO527r-6" value="&quot;INGRESE UN VALOR PARA c&quot;" style="shape=document;whiteSpace=wrap;html=1;boundedLbl=1;" vertex="1" parent="1">
          <mxGeometry x="314" y="1100" width="200" height="90" as="geometry" />
        </mxCell>
        <mxCell id="g0ntqG7BFeiyyCkO527r-7" style="edgeStyle=orthogonalEdgeStyle;rounded=0;orthogonalLoop=1;jettySize=auto;html=1;" edge="1" parent="1">
          <mxGeometry relative="1" as="geometry">
            <mxPoint x="414" y="1220" as="targetPoint" />
            <mxPoint x="414" y="1180" as="sourcePoint" />
          </mxGeometry>
        </mxCell>
        <mxCell id="g0ntqG7BFeiyyCkO527r-8" value="7" style="shape=parallelogram;perimeter=parallelogramPerimeter;whiteSpace=wrap;html=1;fixedSize=1;" vertex="1" parent="1">
          <mxGeometry x="329" y="1220" width="170" height="60" as="geometry" />
        </mxCell>
        <mxCell id="nRCUwWe1iekaHpjzf_Kt-1" style="edgeStyle=orthogonalEdgeStyle;rounded=0;orthogonalLoop=1;jettySize=auto;html=1;" edge="1" parent="1">
          <mxGeometry relative="1" as="geometry">
            <mxPoint x="413" y="1320" as="targetPoint" />
            <mxPoint x="413" y="1280" as="sourcePoint" />
          </mxGeometry>
        </mxCell>
        <mxCell id="nRCUwWe1iekaHpjzf_Kt-2" value="&lt;font style=&quot;vertical-align: inherit;&quot;&gt;&lt;font style=&quot;vertical-align: inherit;&quot;&gt;&lt;font style=&quot;vertical-align: inherit;&quot;&gt;&lt;font style=&quot;vertical-align: inherit;&quot;&gt;&amp;nbsp; &amp;nbsp; &amp;nbsp; &amp;nbsp; &amp;nbsp; &amp;nbsp; &amp;nbsp; &amp;nbsp;&amp;nbsp;&lt;/font&gt;&lt;/font&gt;&lt;/font&gt;&lt;/font&gt;&lt;div&gt;&lt;font style=&quot;vertical-align: inherit;&quot;&gt;&lt;font style=&quot;vertical-align: inherit;&quot;&gt;&lt;font style=&quot;vertical-align: inherit;&quot;&gt;&lt;font style=&quot;vertical-align: inherit;&quot;&gt;&amp;nbsp; &amp;nbsp; &amp;nbsp; &amp;nbsp; DISCRIMINANTE&amp;nbsp; &amp;nbsp; &amp;nbsp; &amp;nbsp; &amp;nbsp; &amp;nbsp; &amp;nbsp; &amp;nbsp; &amp;nbsp; &amp;nbsp; &amp;nbsp; &amp;nbsp; b**2-4ac&amp;nbsp; &amp;nbsp; &amp;nbsp; &amp;nbsp; &amp;nbsp; &amp;nbsp; &amp;nbsp; &amp;nbsp; &amp;nbsp; &amp;nbsp; &amp;nbsp; &amp;nbsp; &amp;nbsp; &amp;nbsp; &amp;nbsp; &amp;nbsp; &amp;nbsp; &amp;nbsp; &amp;nbsp; &amp;nbsp; &amp;nbsp; &amp;nbsp; &amp;nbsp; &amp;nbsp; &amp;nbsp; &amp;nbsp; &amp;nbsp; &amp;nbsp; &amp;nbsp;&lt;/font&gt;&lt;/font&gt;&lt;/font&gt;&lt;/font&gt;&lt;/div&gt;" style="rounded=0;whiteSpace=wrap;html=1;" vertex="1" parent="1">
          <mxGeometry x="274" y="1320" width="280" height="60" as="geometry" />
        </mxCell>
        <mxCell id="nRCUwWe1iekaHpjzf_Kt-3" style="edgeStyle=orthogonalEdgeStyle;rounded=0;orthogonalLoop=1;jettySize=auto;html=1;" edge="1" parent="1">
          <mxGeometry relative="1" as="geometry">
            <mxPoint x="413" y="1420" as="targetPoint" />
            <mxPoint x="413" y="1380" as="sourcePoint" />
          </mxGeometry>
        </mxCell>
        <mxCell id="u99j6XKF1lceGetjxHRG-1" value="&quot;EL DISCRIMINANTE ES&quot; DISCRIMINANTE" style="shape=document;whiteSpace=wrap;html=1;boundedLbl=1;" vertex="1" parent="1">
          <mxGeometry x="320" y="1420" width="210" height="80" as="geometry" />
        </mxCell>
        <mxCell id="u99j6XKF1lceGetjxHRG-2" style="edgeStyle=orthogonalEdgeStyle;rounded=0;orthogonalLoop=1;jettySize=auto;html=1;" edge="1" parent="1">
          <mxGeometry relative="1" as="geometry">
            <mxPoint x="413" y="1530" as="targetPoint" />
            <mxPoint x="413" y="1490" as="sourcePoint" />
          </mxGeometry>
        </mxCell>
      </root>
    </mxGraphModel>
  </diagram>
  <diagram id="nTJN1pLOa1E4LkomBPOj" name="Página-4">
    <mxGraphModel dx="1050" dy="557" grid="1" gridSize="10" guides="1" tooltips="1" connect="1" arrows="1" fold="1" page="1" pageScale="1" pageWidth="827" pageHeight="1169" math="0" shadow="0">
      <root>
        <mxCell id="0" />
        <mxCell id="1" parent="0" />
        <mxCell id="SV4Xtx8hQ0PBQ3LG8-od-2" style="edgeStyle=orthogonalEdgeStyle;rounded=0;orthogonalLoop=1;jettySize=auto;html=1;" edge="1" parent="1" source="SV4Xtx8hQ0PBQ3LG8-od-1">
          <mxGeometry relative="1" as="geometry">
            <mxPoint x="414" y="160" as="targetPoint" />
          </mxGeometry>
        </mxCell>
        <mxCell id="SV4Xtx8hQ0PBQ3LG8-od-1" value="INICIO" style="ellipse;whiteSpace=wrap;html=1;" vertex="1" parent="1">
          <mxGeometry x="354" y="40" width="120" height="80" as="geometry" />
        </mxCell>
        <mxCell id="SV4Xtx8hQ0PBQ3LG8-od-3" value="&quot;INGRESE EL ANCHO DEL RECTANGULO&quot;" style="shape=document;whiteSpace=wrap;html=1;boundedLbl=1;" vertex="1" parent="1">
          <mxGeometry x="326" y="160" width="176" height="80" as="geometry" />
        </mxCell>
        <mxCell id="SV4Xtx8hQ0PBQ3LG8-od-4" style="edgeStyle=orthogonalEdgeStyle;rounded=0;orthogonalLoop=1;jettySize=auto;html=1;" edge="1" parent="1">
          <mxGeometry relative="1" as="geometry">
            <mxPoint x="413" y="270" as="targetPoint" />
            <mxPoint x="413" y="230" as="sourcePoint" />
          </mxGeometry>
        </mxCell>
        <mxCell id="SV4Xtx8hQ0PBQ3LG8-od-5" value="10" style="shape=parallelogram;perimeter=parallelogramPerimeter;whiteSpace=wrap;html=1;fixedSize=1;" vertex="1" parent="1">
          <mxGeometry x="354" y="270" width="120" height="60" as="geometry" />
        </mxCell>
        <mxCell id="SV4Xtx8hQ0PBQ3LG8-od-6" value="&quot;INGRESE EL LARGO DEL RECTANGULO&quot;" style="shape=document;whiteSpace=wrap;html=1;boundedLbl=1;" vertex="1" parent="1">
          <mxGeometry x="326" y="370" width="176" height="80" as="geometry" />
        </mxCell>
        <mxCell id="SV4Xtx8hQ0PBQ3LG8-od-7" style="edgeStyle=orthogonalEdgeStyle;rounded=0;orthogonalLoop=1;jettySize=auto;html=1;" edge="1" parent="1">
          <mxGeometry relative="1" as="geometry">
            <mxPoint x="413" y="370" as="targetPoint" />
            <mxPoint x="413" y="330" as="sourcePoint" />
          </mxGeometry>
        </mxCell>
        <mxCell id="SV4Xtx8hQ0PBQ3LG8-od-8" style="edgeStyle=orthogonalEdgeStyle;rounded=0;orthogonalLoop=1;jettySize=auto;html=1;" edge="1" parent="1">
          <mxGeometry relative="1" as="geometry">
            <mxPoint x="414" y="480" as="targetPoint" />
            <mxPoint x="414" y="440" as="sourcePoint" />
          </mxGeometry>
        </mxCell>
        <mxCell id="SV4Xtx8hQ0PBQ3LG8-od-9" value="20" style="shape=parallelogram;perimeter=parallelogramPerimeter;whiteSpace=wrap;html=1;fixedSize=1;" vertex="1" parent="1">
          <mxGeometry x="354" y="480" width="120" height="60" as="geometry" />
        </mxCell>
        <mxCell id="SV4Xtx8hQ0PBQ3LG8-od-10" value="&amp;nbsp;&amp;nbsp;&lt;div&gt;&amp;nbsp; PERIMETRO&amp;nbsp; &amp;nbsp; &amp;nbsp; &amp;nbsp; &amp;nbsp; &amp;nbsp; &amp;nbsp; &amp;nbsp; &amp;nbsp; &amp;nbsp; &amp;nbsp;2 * (ANCHO+LARGO)&lt;div&gt;&amp;nbsp;&lt;div&gt;&amp;nbsp; &amp;nbsp; &amp;nbsp; &amp;nbsp; &amp;nbsp;AREA&amp;nbsp; &amp;nbsp; &amp;nbsp; &amp;nbsp; &amp;nbsp; &amp;nbsp; &amp;nbsp; &amp;nbsp; &amp;nbsp; &amp;nbsp; &amp;nbsp; &amp;nbsp; &amp;nbsp; &amp;nbsp; ANCHO * LARGO&amp;nbsp; &amp;nbsp; &amp;nbsp; &amp;nbsp; &amp;nbsp; &amp;nbsp; &amp;nbsp; &amp;nbsp; &amp;nbsp; &amp;nbsp; &amp;nbsp;&amp;nbsp;&lt;/div&gt;&lt;/div&gt;&lt;/div&gt;" style="rounded=0;whiteSpace=wrap;html=1;" vertex="1" parent="1">
          <mxGeometry x="280" y="580" width="280" height="60" as="geometry" />
        </mxCell>
        <mxCell id="SV4Xtx8hQ0PBQ3LG8-od-11" style="edgeStyle=orthogonalEdgeStyle;rounded=0;orthogonalLoop=1;jettySize=auto;html=1;" edge="1" parent="1">
          <mxGeometry relative="1" as="geometry">
            <mxPoint x="414" y="580" as="targetPoint" />
            <mxPoint x="414" y="540" as="sourcePoint" />
          </mxGeometry>
        </mxCell>
        <mxCell id="g2yb9IAGX7_Uk7ndcKJC-1" style="edgeStyle=orthogonalEdgeStyle;rounded=0;orthogonalLoop=1;jettySize=auto;html=1;" edge="1" parent="1">
          <mxGeometry relative="1" as="geometry">
            <mxPoint x="414" y="680" as="targetPoint" />
            <mxPoint x="414" y="640" as="sourcePoint" />
          </mxGeometry>
        </mxCell>
        <mxCell id="g2yb9IAGX7_Uk7ndcKJC-2" value="&lt;div&gt;&lt;br&gt;&lt;/div&gt;&quot;EL PERIMETRO DEL RECTANGULO ES&quot; PERIMETRO&lt;div&gt;&quot;EL AREA DEL RECTANGULO ES&quot;&lt;/div&gt;&lt;div&gt;&amp;nbsp;AREA&amp;nbsp;&lt;/div&gt;" style="shape=document;whiteSpace=wrap;html=1;boundedLbl=1;" vertex="1" parent="1">
          <mxGeometry x="280" y="680" width="280" height="120" as="geometry" />
        </mxCell>
        <mxCell id="g2yb9IAGX7_Uk7ndcKJC-4" style="edgeStyle=orthogonalEdgeStyle;rounded=0;orthogonalLoop=1;jettySize=auto;html=1;" edge="1" parent="1">
          <mxGeometry relative="1" as="geometry">
            <mxPoint x="419.5" y="820" as="targetPoint" />
            <mxPoint x="419.5" y="780" as="sourcePoint" />
          </mxGeometry>
        </mxCell>
        <mxCell id="g2yb9IAGX7_Uk7ndcKJC-5" value="FIN" style="ellipse;whiteSpace=wrap;html=1;" vertex="1" parent="1">
          <mxGeometry x="360" y="820" width="120" height="80" as="geometry" />
        </mxCell>
      </root>
    </mxGraphModel>
  </diagram>
  <diagram id="E6BzqyVSE0oCF9Owxyj5" name="Página-5">
    <mxGraphModel dx="1000" dy="530" grid="1" gridSize="10" guides="1" tooltips="1" connect="1" arrows="1" fold="1" page="1" pageScale="1" pageWidth="827" pageHeight="1169" math="0" shadow="0">
      <root>
        <mxCell id="0" />
        <mxCell id="1" parent="0" />
        <mxCell id="CYDE5yRWJCbsEF_hYIIZ-2" style="edgeStyle=orthogonalEdgeStyle;rounded=0;orthogonalLoop=1;jettySize=auto;html=1;exitX=0.5;exitY=1;exitDx=0;exitDy=0;" edge="1" parent="1" source="CYDE5yRWJCbsEF_hYIIZ-1">
          <mxGeometry relative="1" as="geometry">
            <mxPoint x="390" y="150" as="targetPoint" />
          </mxGeometry>
        </mxCell>
        <mxCell id="CYDE5yRWJCbsEF_hYIIZ-1" value="INICIO" style="ellipse;whiteSpace=wrap;html=1;" vertex="1" parent="1">
          <mxGeometry x="330" y="40" width="120" height="80" as="geometry" />
        </mxCell>
        <mxCell id="CYDE5yRWJCbsEF_hYIIZ-3" value="&amp;nbsp; &amp;nbsp;Pi&amp;nbsp; &amp;nbsp; &amp;nbsp; &amp;nbsp; &amp;nbsp; &amp;nbsp; &amp;nbsp; 3.14&amp;nbsp; &amp;nbsp;&amp;nbsp;" style="rounded=0;whiteSpace=wrap;html=1;" vertex="1" parent="1">
          <mxGeometry x="330" y="150" width="120" height="60" as="geometry" />
        </mxCell>
        <mxCell id="CYDE5yRWJCbsEF_hYIIZ-4" style="edgeStyle=orthogonalEdgeStyle;rounded=0;orthogonalLoop=1;jettySize=auto;html=1;exitX=0.5;exitY=1;exitDx=0;exitDy=0;" edge="1" parent="1">
          <mxGeometry relative="1" as="geometry">
            <mxPoint x="389.5" y="240" as="targetPoint" />
            <mxPoint x="389.5" y="210" as="sourcePoint" />
          </mxGeometry>
        </mxCell>
        <mxCell id="CYDE5yRWJCbsEF_hYIIZ-5" value="&quot;INDIQUE EL RADIO DE DE LA ESFERA&quot;" style="shape=document;whiteSpace=wrap;html=1;boundedLbl=1;" vertex="1" parent="1">
          <mxGeometry x="290" y="240" width="200" height="80" as="geometry" />
        </mxCell>
        <mxCell id="CYDE5yRWJCbsEF_hYIIZ-7" style="edgeStyle=orthogonalEdgeStyle;rounded=0;orthogonalLoop=1;jettySize=auto;html=1;exitX=0.5;exitY=1;exitDx=0;exitDy=0;" edge="1" parent="1">
          <mxGeometry relative="1" as="geometry">
            <mxPoint x="389.5" y="340" as="targetPoint" />
            <mxPoint x="389.5" y="310" as="sourcePoint" />
          </mxGeometry>
        </mxCell>
        <mxCell id="CYDE5yRWJCbsEF_hYIIZ-13" value="" style="edgeStyle=orthogonalEdgeStyle;rounded=0;orthogonalLoop=1;jettySize=auto;html=1;" edge="1" parent="1" source="CYDE5yRWJCbsEF_hYIIZ-8" target="CYDE5yRWJCbsEF_hYIIZ-10">
          <mxGeometry relative="1" as="geometry" />
        </mxCell>
        <mxCell id="CYDE5yRWJCbsEF_hYIIZ-8" value="7" style="shape=parallelogram;perimeter=parallelogramPerimeter;whiteSpace=wrap;html=1;fixedSize=1;" vertex="1" parent="1">
          <mxGeometry x="330" y="340" width="120" height="60" as="geometry" />
        </mxCell>
        <mxCell id="CYDE5yRWJCbsEF_hYIIZ-9" style="edgeStyle=orthogonalEdgeStyle;rounded=0;orthogonalLoop=1;jettySize=auto;html=1;exitX=0.5;exitY=1;exitDx=0;exitDy=0;" edge="1" parent="1">
          <mxGeometry relative="1" as="geometry">
            <mxPoint x="389.5" y="430" as="targetPoint" />
            <mxPoint x="389.5" y="400" as="sourcePoint" />
          </mxGeometry>
        </mxCell>
        <mxCell id="CYDE5yRWJCbsEF_hYIIZ-10" value="&amp;nbsp; &amp;nbsp; &amp;nbsp; &amp;nbsp; &amp;nbsp; VOLUMEN&amp;nbsp; &amp;nbsp; &amp;nbsp; &amp;nbsp; &amp;nbsp; &amp;nbsp; &amp;nbsp; &amp;nbsp; &amp;nbsp; &amp;nbsp; &amp;nbsp; &amp;nbsp;4/7 * Pi * 7**3&amp;nbsp;&amp;nbsp;&lt;span style=&quot;background-color: transparent; color: light-dark(rgb(0, 0, 0), rgb(255, 255, 255));&quot;&gt;&amp;nbsp;&amp;nbsp;&lt;/span&gt;&lt;span style=&quot;background-color: transparent; color: light-dark(rgb(0, 0, 0), rgb(255, 255, 255));&quot;&gt;&amp;nbsp; &amp;nbsp; &amp;nbsp; &amp;nbsp; &amp;nbsp; &amp;nbsp; &amp;nbsp; &amp;nbsp; &amp;nbsp; &amp;nbsp; &amp;nbsp;AREA&amp;nbsp; &amp;nbsp; &amp;nbsp; &amp;nbsp; &amp;nbsp; &amp;nbsp; &amp;nbsp; &amp;nbsp; &amp;nbsp; &amp;nbsp; &amp;nbsp; &amp;nbsp; &amp;nbsp;4 * Pi * 7**2&amp;nbsp; &amp;nbsp; &amp;nbsp; &amp;nbsp; &amp;nbsp; &amp;nbsp; &amp;nbsp; &amp;nbsp;&lt;/span&gt;" style="rounded=0;whiteSpace=wrap;html=1;" vertex="1" parent="1">
          <mxGeometry x="250" y="430" width="280" height="60" as="geometry" />
        </mxCell>
        <mxCell id="CYDE5yRWJCbsEF_hYIIZ-11" style="edgeStyle=orthogonalEdgeStyle;rounded=0;orthogonalLoop=1;jettySize=auto;html=1;exitX=0.5;exitY=1;exitDx=0;exitDy=0;" edge="1" parent="1">
          <mxGeometry relative="1" as="geometry">
            <mxPoint x="389.5" y="520" as="targetPoint" />
            <mxPoint x="389.5" y="490" as="sourcePoint" />
          </mxGeometry>
        </mxCell>
        <mxCell id="CYDE5yRWJCbsEF_hYIIZ-12" value="&quot;EL VOLUMEN ES&quot; VOLUMEN&lt;div&gt;&lt;br&gt;&lt;div&gt;EL AREA ES&quot; AREA&amp;nbsp;&lt;/div&gt;&lt;/div&gt;" style="shape=document;whiteSpace=wrap;html=1;boundedLbl=1;" vertex="1" parent="1">
          <mxGeometry x="250" y="520" width="280" height="110" as="geometry" />
        </mxCell>
        <mxCell id="CYDE5yRWJCbsEF_hYIIZ-14" style="edgeStyle=orthogonalEdgeStyle;rounded=0;orthogonalLoop=1;jettySize=auto;html=1;exitX=0.5;exitY=1;exitDx=0;exitDy=0;" edge="1" parent="1">
          <mxGeometry relative="1" as="geometry">
            <mxPoint x="389.41" y="650" as="targetPoint" />
            <mxPoint x="389.41" y="620" as="sourcePoint" />
          </mxGeometry>
        </mxCell>
        <mxCell id="CYDE5yRWJCbsEF_hYIIZ-15" value="FIN" style="ellipse;whiteSpace=wrap;html=1;" vertex="1" parent="1">
          <mxGeometry x="330" y="650" width="120" height="80" as="geometry" />
        </mxCell>
      </root>
    </mxGraphModel>
  </diagram>
  <diagram id="zcksyHy-9hMF1APEtCWc" name="Página-6">
    <mxGraphModel dx="1105" dy="586" grid="1" gridSize="10" guides="1" tooltips="1" connect="1" arrows="1" fold="1" page="1" pageScale="1" pageWidth="827" pageHeight="1169" math="0" shadow="0">
      <root>
        <mxCell id="0" />
        <mxCell id="1" parent="0" />
        <mxCell id="3BEhnRaFVwYCeR1Hg_Ds-2" style="edgeStyle=orthogonalEdgeStyle;rounded=0;orthogonalLoop=1;jettySize=auto;html=1;exitX=0.5;exitY=1;exitDx=0;exitDy=0;" edge="1" parent="1" source="3BEhnRaFVwYCeR1Hg_Ds-1">
          <mxGeometry relative="1" as="geometry">
            <mxPoint x="414" y="130" as="targetPoint" />
          </mxGeometry>
        </mxCell>
        <mxCell id="3BEhnRaFVwYCeR1Hg_Ds-1" value="INICIO" style="ellipse;whiteSpace=wrap;html=1;" vertex="1" parent="1">
          <mxGeometry x="354" y="20" width="120" height="80" as="geometry" />
        </mxCell>
        <mxCell id="3BEhnRaFVwYCeR1Hg_Ds-3" value="&quot;INDIQUE VALOR a, b, c, d, e&quot;" style="shape=document;whiteSpace=wrap;html=1;boundedLbl=1;" vertex="1" parent="1">
          <mxGeometry x="324" y="130" width="180" height="80" as="geometry" />
        </mxCell>
        <mxCell id="NXboBFlLVe_B8vtTKhTZ-1" style="edgeStyle=orthogonalEdgeStyle;rounded=0;orthogonalLoop=1;jettySize=auto;html=1;exitX=0.5;exitY=1;exitDx=0;exitDy=0;" edge="1" parent="1">
          <mxGeometry relative="1" as="geometry">
            <mxPoint x="413" y="230" as="targetPoint" />
            <mxPoint x="413" y="200" as="sourcePoint" />
          </mxGeometry>
        </mxCell>
        <mxCell id="NXboBFlLVe_B8vtTKhTZ-2" value="&amp;nbsp;3, 2, 1, 5, 4" style="shape=parallelogram;perimeter=parallelogramPerimeter;whiteSpace=wrap;html=1;fixedSize=1;" vertex="1" parent="1">
          <mxGeometry x="353" y="230" width="120" height="60" as="geometry" />
        </mxCell>
        <mxCell id="NXboBFlLVe_B8vtTKhTZ-3" style="edgeStyle=orthogonalEdgeStyle;rounded=0;orthogonalLoop=1;jettySize=auto;html=1;exitX=0.5;exitY=1;exitDx=0;exitDy=0;" edge="1" parent="1">
          <mxGeometry relative="1" as="geometry">
            <mxPoint x="414" y="320" as="targetPoint" />
            <mxPoint x="414" y="290" as="sourcePoint" />
          </mxGeometry>
        </mxCell>
        <mxCell id="NXboBFlLVe_B8vtTKhTZ-4" value="&amp;nbsp; &amp;nbsp; &amp;nbsp; &amp;nbsp;&lt;div&gt;&amp;nbsp; &amp;nbsp; &amp;nbsp; &amp;nbsp;RESULTADO&amp;nbsp; &amp;nbsp; &amp;nbsp; &amp;nbsp; &amp;nbsp; &amp;nbsp; 3+2*1/5-4&amp;nbsp; &amp;nbsp; &amp;nbsp; &amp;nbsp; &amp;nbsp; &amp;nbsp;&amp;nbsp;&lt;/div&gt;" style="rounded=0;whiteSpace=wrap;html=1;" vertex="1" parent="1">
          <mxGeometry x="310" y="320" width="210" height="50" as="geometry" />
        </mxCell>
        <mxCell id="NXboBFlLVe_B8vtTKhTZ-9" style="edgeStyle=orthogonalEdgeStyle;rounded=0;orthogonalLoop=1;jettySize=auto;html=1;exitX=0.5;exitY=1;exitDx=0;exitDy=0;" edge="1" parent="1">
          <mxGeometry relative="1" as="geometry">
            <mxPoint x="414" y="400" as="targetPoint" />
            <mxPoint x="414" y="370" as="sourcePoint" />
          </mxGeometry>
        </mxCell>
        <mxCell id="NXboBFlLVe_B8vtTKhTZ-10" value="&quot;EL RESULTADO DE LA OPERACION ES&quot; RESULTADO" style="shape=document;whiteSpace=wrap;html=1;boundedLbl=1;" vertex="1" parent="1">
          <mxGeometry x="320" y="400" width="200" height="80" as="geometry" />
        </mxCell>
        <mxCell id="NXboBFlLVe_B8vtTKhTZ-11" style="edgeStyle=orthogonalEdgeStyle;rounded=0;orthogonalLoop=1;jettySize=auto;html=1;exitX=0.5;exitY=1;exitDx=0;exitDy=0;" edge="1" parent="1">
          <mxGeometry relative="1" as="geometry">
            <mxPoint x="414" y="500" as="targetPoint" />
            <mxPoint x="414" y="470" as="sourcePoint" />
          </mxGeometry>
        </mxCell>
        <mxCell id="NXboBFlLVe_B8vtTKhTZ-12" value="FIN" style="ellipse;whiteSpace=wrap;html=1;" vertex="1" parent="1">
          <mxGeometry x="354" y="505" width="120" height="80" as="geometry" />
        </mxCell>
      </root>
    </mxGraphModel>
  </diagram>
</mxfile>
